<svg aria-hidden="true" style="position:absolute;width:0;height:0;overflow:hidden" xmlns="http://www.w3.org/2000/svg"><defs><symbol id="antenna" viewBox="0 0 64 32"><path fill="#212121" style="fill:var(--color1, #212121)" d="m14.361 10.312-3.94-3.969.437-2.154a.979.979 0 0 0 .354.068h.015a1.008 1.008 0 1 0-.948-.663l-.002-.007-2.315.283L4.186.075a.243.243 0 0 0-.35-.002l-.705.702a.248.248 0 0 0 0 .352l.38.385a6.89 6.89 0 0 0-.847 3.332c0 1.916.773 3.651 2.023 4.912.02.019.043.034.068.045a1.347 1.347 0 0 0-.024.255v2.888H1.744a1.246 1.246 0 0 0-1.245 1.244v.498c0 .138.112.249.249.249h11.449a.249.249 0 0 0 .249-.249v-.498a1.245 1.245 0 0 0-1.244-1.244H8.215v-1.28a6.89 6.89 0 0 0 4.744-.701l-.036.018.382.384a.244.244 0 0 0 .35.002l.706-.702a.248.248 0 0 0 0-.352zm-3.497-7.403a.498.498 0 1 1 .351.851h-.002a.498.498 0 0 1-.348-.851h-.001zm-.586 1.635-.279 1.375-.548-.552.828-.823zm-.283-.421-.896.891-.693-.697 1.589-.194zm1.207 9.317c.412 0 .747.334.747.747v.249H.998v-.249c0-.412.334-.747.747-.747h9.458zm-3.484-.996v.498H5.229v-.498h2.489zm-2.489-.497v-1.892c0-.604.558-1.095 1.244-1.095s1.245.491 1.245 1.095v1.892H5.229zm2.986-.792v-1.1c0-.878-.781-1.593-1.742-1.593h-.027c-.631 0-1.185.33-1.5.826l-.004.007a6.449 6.449 0 0 1-1.779-4.457c0-1.08.264-2.098.732-2.993l-.017.036 8.681 8.731a6.471 6.471 0 0 1-4.387.534l.043.008zm5.269-.319L3.657.952l.352-.351 3.703 3.724c.002 0 .003.003.004.004l6.12 6.156-.353.351z"/><path fill="#2196f3" style="fill:var(--color2, #2196f3)" d="M6.475 9.458h-.003a.747.747 0 0 0-.002 1.494h.003a.747.747 0 0 0 .001-1.494zm.174.923a.248.248 0 0 1-.425-.176c0-.138.111-.249.248-.249a.25.25 0 0 1 .175.425h.002z"/></symbol><symbol id="astronaut" viewBox="0 0 64 32"><path fill="#2196f3" style="fill:var(--color2, #2196f3)" d="M14.921 2.111a.25.25 0 0 0-.199-.169h-.001l-.892-.13-.399-.808c-.083-.17-.363-.17-.446 0l-.399.808-.892.13a.249.249 0 0 0-.138.424l.646.629-.152.888a.25.25 0 0 0 .361.263l.797-.419.797.419a.249.249 0 0 0 .361-.264v.002l-.152-.888.645-.629a.25.25 0 0 0 .062-.257l.001.002zm-1.149.62a.247.247 0 0 0-.071.22l.089.52-.467-.245a.25.25 0 0 0-.233 0l.001-.001-.467.245.089-.52a.248.248 0 0 0-.071-.22l-.378-.368.522-.076a.253.253 0 0 0 .188-.136l.233-.473.233.473a.245.245 0 0 0 .188.136l.522.076-.378.368zm-1.576 6.846h-.498v.498h.498v-.498zm0 .996h-.498v.498h.498v-.498zm.497-.498h-.498v.498h.498v-.498zm-.995 0H11.2v.498h.498v-.498zm-1.245 2.24h-.498v.498h.498v-.498zm0 .995h-.498v.498h.498v-.498zm.498-.497h-.498v.498h.498v-.498zm-.995 0h-.498v.498h.498v-.498zm-2.489-1.494h-.498v.498h.498v-.498zm0 .996h-.498v.498h.498v-.498zm.497-.498h-.498v.498h.498v-.498zm-.995 0h-.498v.498h.498v-.498zm-4.231-8.96H2.24v.498h.498v-.498zm0 .996H2.24v.498h.498v-.498zm.497-.498h-.498v.498h.498v-.498zm-.995 0h-.498v.498h.498v-.498z"/><path fill="#212121" style="fill:var(--color1, #212121)" d="M11.533 6.608a.826.826 0 0 0-.55-.328h-.004a.823.823 0 0 0-.626.166l.002-.001-.585.448-.886.661-.634-.253a3.237 3.237 0 0 0 1.92-2.949c0-1.784-1.457-3.236-3.248-3.236S3.673 2.568 3.673 4.352c0 .647.193 1.248.523 1.754l-1.292-.011-.011.002a.256.256 0 0 0-.074.015l.002-.001-.018.006-.009.003-1.509.745h-.001l-.883.425a.214.214 0 0 0-.03.017h.001a.83.83 0 0 0-.277 1.076l-.002-.005a.83.83 0 0 0 .487.413l.006.002a.83.83 0 0 0 .648-.062l-.004.002.648-.344 1.056-.546.633-.004-2.54 2.527-.001.001-.625.622a.769.769 0 0 0-.229.548v.002a.779.779 0 0 0 .778.777h.001a.78.78 0 0 0 .551-.227l.613-.611.812-.607.42.419L1.9 12.731a.769.769 0 0 0-.229.548v.002a.776.776 0 0 0 .778.776h.002a.784.784 0 0 0 .551-.226l2.095-2.087.01-.007 2.411-2.64 1.62.23a.237.237 0 0 0 .122-.015l.023-.011c.009-.004.018-.007.027-.013l1.5-.995c.006-.004.009-.01.014-.014s.013-.007.019-.012l.593-.556a.829.829 0 0 0 .097-1.105l.002.002zM.994 8.293a.33.33 0 0 1-.262.023l.002.001a.335.335 0 0 1-.1-.587l.001-.001.613-.295.148.431.062.181-.463.246zm1.632-.853-.723.373-.119-.348-.086-.25.946-.467-.019.692zm7.047-3.09c0 .429-.102.833-.279 1.194l-1.951-.886a.871.871 0 0 0-.365-.646l-.003-.002.683-2.268A2.744 2.744 0 0 1 9.673 4.35zm-5.502 0A2.747 2.747 0 0 1 7.27 1.637l-.668 2.218c-.009 0-.017-.003-.027-.003a.873.873 0 0 0-.873.871.872.872 0 0 0 1.629.43l1.803.819a2.75 2.75 0 0 1-2.211 1.115 2.747 2.747 0 0 1-2.751-2.738zm2.78.374a.375.375 0 0 1-.376.373h-.001a.375.375 0 0 1-.375-.373c0-.206.169-.373.376-.373s.376.167.376.373zM1.15 11.735a.282.282 0 0 1-.399 0c-.051-.05-.082-.12-.082-.197s.031-.147.082-.197l.449-.447.398.396-.447.445zm1.5 1.742a.282.282 0 0 1-.399 0c-.051-.05-.082-.12-.082-.197s.031-.147.082-.197l.449-.448.397.396-.448.446zm1.625-1.619-.001.001-.823.821-.398-.396.824-.82c.019-.019.03-.041.042-.063.003-.006.009-.012.012-.019.008-.019.009-.04.012-.06.002-.012.006-.022.006-.034 0-.016-.006-.033-.009-.049-.003-.015-.003-.03-.009-.045a.225.225 0 0 0-.043-.064c-.005-.006-.006-.012-.012-.018s0-.001 0-.001l-.75-.747c-.008-.008-.018-.011-.027-.018a.204.204 0 0 0-.039-.026l-.001-.001a.23.23 0 0 0-.042-.015h-.002a.218.218 0 0 0-.047-.009h-.012a.198.198 0 0 0-.035.003h.001a.195.195 0 0 0-.092.031c-.009.005-.02.007-.028.013l-.828.618-.42-.419 1.12-1.114 2.035 2.002-.433.429zm3.182-3.274c-.007-.001-.014.002-.021.001h-.012a.202.202 0 0 0-.043.004h.001a.219.219 0 0 0-.087.033l.001-.001a.263.263 0 0 0-.039.029c-.006.005-.013.008-.019.014l-2.192 2.401-2.02-1.986 1.322-1.315a.249.249 0 0 0-.176-.425h-.001l-1.036.006.013-.75 1.449.012c.59.605 1.413.98 2.323.98h.002c.204 0 .403-.021.597-.057.019.015.037.03.06.039l1.125.448.071.354.083.413-1.401-.199zm1.886.083-.146-.727.675-.504.442.586-.971.645zm1.751-1.321-.391.366-.435-.577.388-.297a.34.34 0 0 1 .477.066.332.332 0 0 1-.039.442z"/><path fill="#212121" style="fill:var(--color1, #212121)" d="m6.348 8.654-1-.996a.248.248 0 0 0-.352 0l-1 .996a.25.25 0 0 0 0 .352l1 .996a.248.248 0 0 0 .352 0l1-.996a.248.248 0 0 0 0-.352zm-1.176.821-.647-.644.647-.644.647.644-.647.644zM8.01 2.366l-.12.483c.033.008.811.211.811 1.003h.498c0-.941-.777-1.384-1.188-1.486zM9.198 4.35H8.7v.498h.498V4.35z"/></symbol><symbol id="clock" viewBox="0 0 64 32"><path fill="#212121" style="fill:var(--color1, #212121)" d="M14.605 7.14a7.142 7.142 0 1 0-14.284.004 7.147 7.147 0 0 0 4.919 6.788l.051.014a.313.313 0 0 0 .247-.031.298.298 0 0 0 .132-.166l1.804-5.717a.893.893 0 1 0-.397-1.695l.005-.002-2.383-2.383a.298.298 0 0 0-.422.422l2.381 2.384a.872.872 0 0 0 .249 1.076l.002.001-1.718 5.447a6.554 6.554 0 1 1 8.415-3.884 6.592 6.592 0 0 1-3.441 3.704l-.041.017-.186-.875a.297.297 0 0 0-.49-.16l-1.79 1.599a.298.298 0 0 0 .106.505l.002.001 2.286.73a.297.297 0 0 0 .381-.347v.002l-.182-.858c2.58-1.108 4.353-3.627 4.353-6.56V7.14v.001zm-7.142-.297a.298.298 0 0 1 0 .596.298.298 0 0 1 0-.596zm.98 6.937 1.019-.909.281 1.325-1.301-.416z"/><path fill="#2196f3" style="fill:var(--color2, #2196f3)" d="M7.165 1.486v.595a.298.298 0 0 0 .596 0v-.595a.298.298 0 0 0-.596 0zM1.809 6.843a.298.298 0 0 0 0 .596h.595a.298.298 0 0 0 0-.596h-.595zm11.308.595a.298.298 0 0 0 0-.596h-.595a.298.298 0 0 0 0 .596h.595z"/></symbol><symbol id="Company1" viewBox="0 0 64 32"><path fill="#afb1b8" style="fill:var(--color3, #afb1b8)" d="m1.28 0 1.495 1.415L0 1.413V8.28h7.253V5.654l1.493 1.414V-.001H1.279zm5.908 5.489L2.949 1.476h4.239v4.013zM5.872 7.276H1.148V2.658h.334v4.305h4.39v.313zM2.263 9.195l-.175.359-.175-.359h-.146l.255.479v.279h.132v-.279l.254-.479h-.146zm.22.758.061-.177h.294l.062.177h.138l-.287-.758h-.118l-.286.758h.137zm.208-.597.11.314h-.22l.11-.315zm.695.296a.172.172 0 0 0-.029.095v.001c0 .064.022.116.067.156s.105.06.18.06.14-.02.194-.061l.043.051h.147l-.111-.132a.378.378 0 0 0 .066-.23h-.11a.303.303 0 0 1-.032.139l-.147-.173.052-.038a.29.29 0 0 0 .078-.078l.001-.001a.166.166 0 0 0 .024-.086v-.004a.156.156 0 0 0-.053-.117.189.189 0 0 0-.128-.049H3.62c-.061 0-.11.018-.146.052s-.054.081-.054.141c0 .024.006.049.017.076s.033.058.062.095a.436.436 0 0 0-.113.105zm.342.168a.197.197 0 0 1-.12.043h-.006a.129.129 0 0 1-.085-.033.113.113 0 0 1-.034-.081v-.004c0-.041.021-.077.063-.108l.016-.012.166.195zm-.136-.336c-.036-.044-.054-.081-.054-.11 0-.025.007-.046.022-.063a.077.077 0 0 1 .056-.025h.006a.08.08 0 0 1 .054.021.067.067 0 0 1 .022.051v.003a.095.095 0 0 1-.032.071l-.016.013-.058.04zm1.234.412a.276.276 0 0 0 .09-.189h-.131c-.007.054-.023.093-.05.116s-.065.035-.117.035c-.057 0-.1-.022-.129-.065s-.044-.106-.044-.188v-.067c.001-.081.016-.142.047-.184s.075-.063.132-.063c.049 0 .087.012.112.036s.042.063.048.118h.131c-.009-.083-.038-.147-.089-.193s-.118-.068-.202-.068a.307.307 0 0 0-.164.044.282.282 0 0 0-.108.124l-.001.002a.44.44 0 0 0-.038.18V9.614c.001.07.014.131.039.184s.061.093.106.122c.046.029.1.043.16.043a.303.303 0 0 0 .208-.068zm.775-.107a.463.463 0 0 0 .039-.196v-.05a.463.463 0 0 0-.041-.19l.001.003a.284.284 0 0 0-.11-.127l-.001-.001c-.048-.03-.102-.045-.164-.045s-.116.015-.164.045a.297.297 0 0 0-.111.13.452.452 0 0 0-.039.186v.01-.001.043c0 .073.013.137.039.192s.064.099.112.129.103.045.164.045.117-.015.165-.045a.285.285 0 0 0 .11-.129zm-.141-.428a.33.33 0 0 1 .048.194v.039c0 .085-.016.15-.047.195s-.076.067-.134.067h-.005a.155.155 0 0 1-.129-.068v-.001a.332.332 0 0 1-.048-.193V9.55a.325.325 0 0 1 .049-.189.155.155 0 0 1 .128-.067h.006c.058 0 .103.022.135.067z"/></symbol><symbol id="company2" viewBox="0 0 64 32"><path fill="#afb1b8" style="fill:var(--color3, #afb1b8)" d="M3.651.626h-.029c-.045-.003-.09-.004-.134-.005h-.097c-.085 0-.171.002-.257.006h-.02a6.02 6.02 0 0 0-2.28.588l.036-.016-.092.044v4.724l.216-.073c.189-.065.391-.124.6-.178a7.126 7.126 0 0 1 1.722-.229h.005v.621c-.077 0-.152.003-.227.006h-.018c-.485.027-.939.1-1.377.215l.048-.011a6.72 6.72 0 0 0-1.618.635l.035-.018V.877A6.205 6.205 0 0 1 1.781.211l.044-.01a6.197 6.197 0 0 1 1.563-.202h.092c.109.003.215.008.315.015.288.021.554.065.811.131L4.575.138v.611a4.606 4.606 0 0 0-.74-.113L3.819.635 3.804.634C3.751.63 3.699.625 3.65.625zm1.075.624c.135.01.276.015.418.015a6.685 6.685 0 0 0 1.692-.222l-.047.01A6.753 6.753 0 0 0 8.406.418l-.035.018v5.95a6.205 6.205 0 0 1-1.617.666l-.044.01a6.2 6.2 0 0 1-1.564.201h-.039c-.408 0-.804-.051-1.182-.147l.033.007V1.134a4.847 4.847 0 0 0 .768.115zm3.028.047-.216.073a9.168 9.168 0 0 1-.6.18 7.112 7.112 0 0 1-1.792.23h-.001c-.141 0-.27-.004-.396-.012l-.172-.011v4.859l.148.013c.137.012.278.018.421.018a5.734 5.734 0 0 0 1.452-.192l-.04.009a5.91 5.91 0 0 0 1.139-.412l-.035.015.092-.044V1.298zM.584 9.005a.317.317 0 0 0-.229-.097H.343h.001-.005a.362.362 0 0 0-.136.027l.002-.001a.313.313 0 0 0-.177.178l-.001.002a.362.362 0 0 0-.025.134v.809a.378.378 0 0 0 .032.166.288.288 0 0 0 .192.167c.039.011.08.017.121.017a.343.343 0 0 0 .336-.341v-.09H.471v.077a.201.201 0 0 1-.013.069v-.001a.133.133 0 0 1-.031.046.149.149 0 0 1-.088.031l-.012.001a.107.107 0 0 1-.087-.044.188.188 0 0 1-.028-.1v-.763a.267.267 0 0 1 .026-.121.11.11 0 0 1 .104-.049H.341h.004c.037 0 .07.018.09.045a.171.171 0 0 1 .035.104V9.346h.209V9.259a.369.369 0 0 0-.027-.141l.001.003a.35.35 0 0 0-.071-.114zm1.257-.009a.36.36 0 0 0-.366-.066.337.337 0 0 0-.193.177l-.001.002a.383.383 0 0 0-.031.157v.776a.376.376 0 0 0 .031.159.314.314 0 0 0 .082.109.369.369 0 0 0 .238.091.367.367 0 0 0 .241-.091.321.321 0 0 0 .08-.109.376.376 0 0 0 .031-.159v-.783a.366.366 0 0 0-.032-.152l.001.002a.356.356 0 0 0-.08-.113zm-.099 1.046.001.012a.139.139 0 0 1-.042.1c-.027.023-.062.036-.1.036s-.073-.014-.1-.036a.14.14 0 0 1-.043-.1l.001-.013v.001-.788c0-.039.016-.075.042-.1.027-.023.062-.036.1-.036s.073.014.1.036a.14.14 0 0 1 .043.1l-.001.013v-.001.777zm1.75.347v-1.47h-.203l-.267.778h-.004l-.269-.778h-.201v1.469h.21v-.894h.004l.205.632h.105l.207-.632h.004v.894h.21zm1.192-1.366a.285.285 0 0 0-.119-.08.444.444 0 0 0-.144-.023h-.319v1.47h.21v-.574h.108a.386.386 0 0 0 .189-.04.304.304 0 0 0 .114-.111l.001-.001c.024-.039.041-.083.048-.128s.011-.1.011-.154v-.014.001a.875.875 0 0 0-.02-.21.323.323 0 0 0-.077-.135zm-.108.448a.188.188 0 0 1-.02.078v-.001a.119.119 0 0 1-.053.051h-.001a.21.21 0 0 1-.088.019h-.011.001-.096v-.5h.118c.031 0 .06.007.086.019l-.001-.001a.12.12 0 0 1 .049.053v.001a.196.196 0 0 1 .018.082v.098c0 .034.002.07 0 .101h-.002zm1.1-.552h-.172l-.324 1.47h.21l.061-.316h.285l.062.316h.21l-.332-1.47zm-.193.954.103-.533h.004l.102.533h-.209zm1.546-.068h-.004l-.316-.885h-.201v1.47h.21v-.884h.004l.32.884h.197V8.921H7.03v.885zm1.28-.886-.169.585h-.004l-.169-.585h-.221l.288.849v.621h.21v-.621l.288-.848H8.31zM0 10.804h.101v.283h.068v-.283h.1v-.058h-.27v.058zm.848-.058-.132.341h.073l.028-.078h.136l.029.078h.075l-.136-.341H.848zm-.01.206.046-.127.046.127H.837zm.849.009h.079v.044a.127.127 0 0 1-.081.029H1.68a.084.084 0 0 1-.067-.033.141.141 0 0 1-.025-.081v-.008c0-.076.033-.114.098-.114h.007c.034 0 .062.023.07.054v.001l.067-.013c-.014-.067-.063-.1-.145-.1H1.68a.175.175 0 0 0-.115.044.164.164 0 0 0-.049.131v-.001.008c0 .046.017.088.044.12.03.031.072.05.119.05h.017a.202.202 0 0 0 .139-.055v-.134h-.148v.058zm.857-.215h-.069v.341h.239v-.058h-.17v-.283zm.724 0h-.069v.341h.069v-.341zm.708.228-.14-.228h-.067v.341h.064v-.223l.137.223h.069v-.341h-.063v.228zm.64-.037h.17v-.058h-.17v-.075h.183v-.058h-.252v.341h.259v-.058h-.19v-.092zm1.552-.056h-.134v-.134h-.068v.341h.068v-.149h.134v.149h.069v-.341h-.069v.135zm.644.056h.171v-.058h-.171v-.075h.183v-.058h-.252v.341h.259v-.058h-.19v-.092zm.873 0c.059-.009.09-.041.09-.095l.001-.01a.08.08 0 0 0-.034-.066.19.19 0 0 0-.087-.021l-.014.001h.001-.145v.341h.069v-.143h.018a.1.1 0 0 1 .038.008h-.001c.01.006.018.015.024.025l.074.108h.082l-.042-.067a.234.234 0 0 0-.075-.081l-.001-.001zm-.069-.047h-.051v-.086h.054l.014-.001c.02 0 .039.003.056.009h-.001a.045.045 0 0 1-.003.069.206.206 0 0 1-.057.009h-.013.001zm.727.047h.17v-.058h-.17v-.075h.183v-.058h-.253v.341h.259v-.058h-.19v-.092z"/></symbol><symbol id="company3" viewBox="0 0 64 32"><path fill="#afb1b8" style="fill:var(--color3, #afb1b8)" d="m1.58 8.768.01.002a.022.022 0 0 1 .008.005l.046.044a.373.373 0 0 1-.131.084.508.508 0 0 1-.174.03h-.013.001a.508.508 0 0 1-.174-.028.399.399 0 0 1-.132-.08.351.351 0 0 1-.084-.121l-.001-.002a.397.397 0 0 1-.03-.153V8.536c0-.109.047-.206.122-.274a.413.413 0 0 1 .14-.08.543.543 0 0 1 .18-.028h.011c.056 0 .109.009.159.027l-.003-.001a.478.478 0 0 1 .125.071l-.039.047-.01.008a.033.033 0 0 1-.014.004h-.002a.034.034 0 0 1-.017-.005l-.021-.013-.029-.016a.316.316 0 0 0-.09-.028h-.002a.426.426 0 0 0-.064-.005H1.343a.376.376 0 0 0-.127.022l.003-.001a.306.306 0 0 0-.102.06c-.029.027-.051.06-.066.095s-.024.077-.024.121v.01c0 .044.009.086.024.124l-.001-.002a.273.273 0 0 0 .162.154c.038.014.079.02.12.02a.553.553 0 0 0 .071-.004.28.28 0 0 0 .154-.066.035.035 0 0 1 .022-.008zm1.344-.223v.005a.398.398 0 0 1-.032.155l.001-.002a.348.348 0 0 1-.087.122.397.397 0 0 1-.135.079l-.003.001a.557.557 0 0 1-.358-.002l.004.001a.377.377 0 0 1-.225-.202L2.088 8.7a.427.427 0 0 1 .001-.317l-.001.003a.37.37 0 0 1 .089-.124.392.392 0 0 1 .137-.077.556.556 0 0 1 .358.001l-.004-.001c.052.018.098.045.137.08a.359.359 0 0 1 .119.28zm-.123 0v-.007a.33.33 0 0 0-.023-.122l.001.002a.256.256 0 0 0-.159-.153l-.002-.001a.406.406 0 0 0-.26.001l.003-.001a.278.278 0 0 0-.098.06.245.245 0 0 0-.062.093l-.001.002a.366.366 0 0 0 .001.255L2.2 8.671a.259.259 0 0 0 .159.153l.002.001a.418.418 0 0 0 .257 0 .27.27 0 0 0 .098-.059.265.265 0 0 0 .062-.095.322.322 0 0 0 .022-.126zm1.039.132.012.028.013-.028a.199.199 0 0 1 .016-.029l-.001.001.297-.47c.006-.008.011-.013.017-.015s.013-.003.02-.003h.092v.764h-.104v-.612.001l-.299.476a.046.046 0 0 1-.017.017.051.051 0 0 1-.025.006H3.842a.043.043 0 0 1-.025-.007.046.046 0 0 1-.017-.017l-.308-.479v.613h-.1v-.762h.092l.021.003h-.001a.03.03 0 0 1 .016.015l.304.47a.135.135 0 0 1 .015.026v.001zm1.119-.038v.286h-.116v-.762h.259a.543.543 0 0 1 .145.017.274.274 0 0 1 .102.048c.025.02.045.045.058.073v.001c.014.031.02.064.02.098v.005c0 .069-.033.13-.084.169h-.001a.29.29 0 0 1-.103.05.488.488 0 0 1-.131.018h-.01l-.14-.002zm0-.082H5.1c.03 0 .061-.004.09-.012a.204.204 0 0 0 .066-.033.145.145 0 0 0 .053-.113v-.01a.126.126 0 0 0-.012-.055v.001a.148.148 0 0 0-.04-.052.25.25 0 0 0-.138-.042l-.019.001h.001-.141v.314zm1.563.369h-.094a.048.048 0 0 1-.024-.007.06.06 0 0 1-.015-.017l-.079-.184h-.397l-.082.184a.043.043 0 0 1-.039.025h-.093l.349-.764h.121l.354.764zm-.576-.283h.328l-.138-.311a.44.44 0 0 1-.026-.072l-.013.04-.013.032-.137.31zm1.079-.477a.045.045 0 0 1 .017.013l.509.576v-.593h.104v.764H7.596a.06.06 0 0 1-.023-.005.085.085 0 0 1-.019-.014l-.508-.575v.027-.001.567h-.104v-.764h.062c.007 0 .014.001.021.004zm1.488.457v.303h-.116v-.303l-.322-.46h.107c.008 0 .016.002.023.007a.085.085 0 0 1 .016.017l.201.297.021.035a.3.3 0 0 1 .015.032l.015-.033a.312.312 0 0 1 .02-.035l.198-.299a.075.075 0 0 1 .015-.016.036.036 0 0 1 .023-.008h.107l-.322.462zm-4.73-1.742c.051.006.102.01.154.014.785-.305 1.449-.804 1.909-1.435s.696-1.366.678-2.113l-.865-.751c.176.795.094 1.617-.237 2.374s-.898 1.419-1.638 1.911z"/><path fill="#afb1b8" style="fill:var(--color3, #afb1b8)" d="m3.474 6.846.023.004c.79-.491 1.392-1.177 1.729-1.969s.393-1.653.16-2.473l-1.232-1.07c.498.88.699 1.865.578 2.839s-.557 1.9-1.259 2.668zM7.652 4.23c-.209.821-.718 1.561-1.45 2.111a4.49 4.49 0 0 1-.663.417l-.026.012c.596-.152 1.144-.421 1.601-.786s.812-.817 1.037-1.32l-.5-.434z"/><path fill="#afb1b8" style="fill:var(--color3, #afb1b8)" d="m7.456 4.109-.711-.618c-.014.705-.244 1.393-.668 1.994S5.052 6.578 4.336 6.909h.003c.16 0 .319-.009.477-.025.669-.237 1.261-.615 1.721-1.099s.776-1.06.918-1.676zM3.577.887 2.728.149C1.969.404 1.317.852.856 1.434S.147 2.706.145 3.412c.003.781.305 1.539.86 2.153s1.328 1.051 2.2 1.24c.778-.824 1.234-1.842 1.301-2.906S4.247 1.78 3.577.887zm5.84 3.108c-.003-.926-.428-1.814-1.182-2.469S6.459.502 5.393.499h-.008c-.513 0-1.005.085-1.465.243l.032-.009 5.196 4.514c.169-.368.268-.798.269-1.251z"/></symbol><symbol id="company4" viewBox="0 0 64 32"><path fill="#afb1b8" style="fill:var(--color3, #afb1b8)" d="M2.804 2.795h-.001c-.512 0-.926.368-.926.823 0 .455.415.823.926.823h.001c.512 0 .926-.369.926-.823 0-.455-.415-.823-.926-.823zm6.838-.263c-.002-.631-.284-1.237-.787-1.683S7.672.151 6.961.149C6.25.15 5.569.402 5.066.848S4.28 1.9 4.279 2.532v3.482s5.362-.531 5.363-3.482v-.001zM0 7.157c.001.439.198.86.548 1.171s.823.486 1.318.487c.494-.001.968-.176 1.318-.487s.547-.732.548-1.171V4.734S.001 5.104.001 7.157zm1.865.434a.527.527 0 0 1-.271-.073.454.454 0 0 1-.179-.192l-.001-.003a.393.393 0 0 1-.027-.253v.003c.019-.084.065-.162.134-.222s.153-.102.247-.118h.003a.57.57 0 0 1 .286.026l-.004-.001c.089.033.166.089.219.16a.403.403 0 0 1 .045.408.449.449 0 0 1-.105.141.536.536 0 0 1-.346.128v-.002zm3.771-.239h-.36v.372h-.188v-.91h.593v.152h-.405v.235h.36v.151zm.901-.062c0 .09-.016.168-.047.236s-.077.119-.137.156a.368.368 0 0 1-.196.055H6.15a.38.38 0 0 1-.202-.054.353.353 0 0 1-.136-.153l-.001-.002a.53.53 0 0 1-.05-.225V7.25c0-.09.016-.169.048-.236a.363.363 0 0 1 .339-.212.357.357 0 0 1 .339.212.546.546 0 0 1 .049.236v.041zm-.19-.042a.388.388 0 0 0-.051-.218.166.166 0 0 0-.139-.074h-.015a.166.166 0 0 0-.138.073v.001a.383.383 0 0 0-.052.215v.044c0 .093.017.165.051.216s.083.077.148.077h.007a.164.164 0 0 0 .137-.073v-.001a.383.383 0 0 0 .051-.216v-.044zm.798.237V7.48a.098.098 0 0 0-.037-.076.49.49 0 0 0-.135-.06 1.026 1.026 0 0 1-.16-.065l.005.003c-.103-.056-.155-.131-.155-.226 0-.049.014-.093.041-.131s.068-.069.119-.091c.052-.022.111-.032.175-.032s.123.012.174.036a.268.268 0 0 1 .161.245h-.188c0-.042-.013-.074-.039-.097s-.063-.035-.111-.035a.175.175 0 0 0-.107.029.092.092 0 0 0-.038.074v.002c0 .03.015.054.044.074s.074.039.132.056c.107.032.184.072.233.119s.073.107.073.178c0 .079-.03.141-.09.186s-.14.067-.24.067a.472.472 0 0 1-.191-.038.307.307 0 0 1-.131-.104l-.001-.001a.27.27 0 0 1-.045-.149v-.006h.188c0 .1.06.151.18.151a.18.18 0 0 0 .105-.027.088.088 0 0 0 .037-.073v-.004zm1.001-.519h-.279v.758h-.188v-.758h-.275v-.152h.741v.152zm.655.364h-.36v.244h.422v.151h-.61v-.91h.609v.152h-.421v.217h.36v.147zm.509.061h-.149v.333h-.188v-.91h.338c.108 0 .191.024.249.072s.087.116.087.203a.275.275 0 0 1-.041.156.273.273 0 0 1-.12.098l-.002.001.197.372v.009H9.48l-.171-.333zm-.149-.152h.151a.159.159 0 0 0 .109-.035.13.13 0 0 0 .039-.092v-.007c0-.043-.012-.077-.037-.101s-.061-.037-.112-.037H9.16v.273zm1.136.165v.321h-.188v-.91h.355c.068 0 .128.013.18.038a.278.278 0 0 1 .162.264c0 .089-.031.16-.092.211s-.145.077-.253.077h-.164zm0-.152h.167c.05 0 .087-.012.113-.035s.039-.057.039-.1V7.11a.15.15 0 0 0-.04-.102.146.146 0 0 0-.109-.042h-.172v.286zm1.186.078h-.36v.244h.422v.151h-.61v-.91h.609v.152h-.421v.217h.36v.147zm.87-.364h-.279v.758h-.188v-.758h-.275v-.152h.741v.152zm.655.364h-.36v.244h.422v.151h-.61v-.91h.609v.152h-.421v.217h.36v.147zm.51.061h-.149v.333h-.188v-.91h.338c.108 0 .19.024.249.072s.087.116.087.203a.283.283 0 0 1-.041.156.273.273 0 0 1-.12.098l-.002.001.197.372v.009h-.201l-.171-.333zm-.15-.152h.151a.159.159 0 0 0 .109-.035.13.13 0 0 0 .039-.093v-.007c0-.043-.012-.077-.037-.101s-.061-.037-.112-.037h-.151v.273zm1.102.246V7.48a.098.098 0 0 0-.037-.076.49.49 0 0 0-.135-.06 1.026 1.026 0 0 1-.16-.065l.005.003c-.103-.056-.155-.131-.155-.226 0-.049.014-.093.041-.131s.068-.069.119-.091c.052-.022.111-.032.175-.032s.123.012.174.036a.268.268 0 0 1 .161.245h-.188c0-.042-.013-.074-.039-.097s-.063-.035-.111-.035a.175.175 0 0 0-.107.029.092.092 0 0 0-.038.074v.002c0 .03.015.054.045.074s.074.039.132.056c.107.032.184.072.233.119s.073.107.073.178c0 .079-.03.141-.09.186s-.14.067-.24.067a.472.472 0 0 1-.191-.038.307.307 0 0 1-.131-.104l-.001-.001a.27.27 0 0 1-.045-.149v-.006h.188c0 .1.06.151.18.151a.174.174 0 0 0 .104-.027.09.09 0 0 0 .038-.073v-.004z"/></symbol><symbol id="company5" viewBox="0 0 64 32"><path fill="#afb1b8" style="fill:var(--color3, #afb1b8)" d="M1.015 8.263c.052.059.08.133.078.208v.016c0 .047-.01.091-.029.13l.001-.002a.34.34 0 0 1-.093.119l-.001.001a.554.554 0 0 1-.315.097l-.038-.001H.62 0V7.51h.607l.036-.001c.112 0 .216.033.302.09l-.002-.001c.039.03.07.068.091.111s.03.09.027.137a.292.292 0 0 1-.07.202.334.334 0 0 1-.185.103.362.362 0 0 1 .209.113zm-.727-.199h.259a.265.265 0 0 0 .165-.044.157.157 0 0 0 .044-.058v-.001a.137.137 0 0 0 .012-.058L.767 7.89v.001-.011a.135.135 0 0 0-.013-.06v.001a.17.17 0 0 0-.043-.059.27.27 0 0 0-.149-.045l-.022.001h.001-.255v.347zm.45.507a.163.163 0 0 0 .047-.06V8.51a.146.146 0 0 0 .014-.063v-.011.001-.01a.145.145 0 0 0-.015-.066v.001a.18.18 0 0 0-.048-.061.287.287 0 0 0-.177-.047H.56.288v.363h.276a.294.294 0 0 0 .174-.046zm1.517.26-.337-.516h-.127v.516h-.29V7.51h.55l.039-.001c.129 0 .249.043.345.115l-.002-.001a.408.408 0 0 1 .131.266l.001.028a.393.393 0 0 1-.091.253l.001-.001a.458.458 0 0 1-.26.134h-.003l.359.528h-.316zm-.464-.696h.237c.165 0 .247-.067.247-.2v-.011a.187.187 0 0 0-.014-.071v.001a.184.184 0 0 0-.047-.068.272.272 0 0 0-.164-.055l-.024.001h.001-.24l.003.402zm2.051.43h-.579l-.102.266h-.304l.531-1.306h.329l.529 1.306h-.304l-.1-.266zm-.077-.2-.211-.557-.211.557h.423zm2.064.466h-.288l-.646-.898v.898h-.288V7.51h.288l.646.903V7.51h.288v1.321zm1.645-.316c-.06.1-.15.181-.261.233a.896.896 0 0 1-.382.084h-.025.001-.513V7.511h.537c.138 0 .269.03.387.084l-.006-.002c.11.051.201.131.261.23a.72.72 0 0 1 0 .693zm-.33-.031a.457.457 0 0 0 .127-.315.46.46 0 0 0-.127-.315.525.525 0 0 0-.328-.113l-.035.001h.002-.2v.855h.2l.033.001a.531.531 0 0 0 .329-.114l-.001.001zM4.023.164s3.72 1.286 3.641 3.147v3.148s-3.718-1.286-3.64-3.148L4.023.164zm6.955 5.557a5.384 5.384 0 0 1 2.364-.797v-.986a4.783 4.783 0 0 0-2.364 1.783z"/><path fill="#afb1b8" style="fill:var(--color3, #afb1b8)" d="M10.556 6.018c.575-1.06 1.572-1.878 2.786-2.286V.893S8.044 2.725 8.156 5.375v4.481s.236-.082.608-.236c0-.143 0-.288.017-.433.109-1.23.748-2.37 1.776-3.17z"/><path fill="#afb1b8" style="fill:var(--color3, #afb1b8)" d="M10.052 7.683a4.32 4.32 0 0 1 .185-.918 4.148 4.148 0 0 0-1.122 2.707c.442-.193.777-.358 1.104-.534l-.085.042a4.227 4.227 0 0 1-.082-1.298zm.211.016a4.084 4.084 0 0 0 .07 1.202l-.005-.026c1.447-.793 3.074-2.019 3.011-3.499v-.129a4.951 4.951 0 0 0-2.754 1.178 3.983 3.983 0 0 0-.321 1.259l-.001.016z"/></symbol><symbol id="company6" viewBox="0 0 64 32"><path fill="#afb1b8" style="fill:var(--color3, #afb1b8)" d="M10.117 4.567a.625.625 0 0 1-.13-.383l.001-.043v.002-.615c0-.188.043-.332.128-.43s.232-.147.441-.146c.196 0 .335.042.417.125.09.106.133.237.123.368v.145h-.35v-.147a.759.759 0 0 0-.01-.143.138.138 0 0 0-.05-.085.2.2 0 0 0-.112-.034l-.016.001h.001l-.015-.001a.211.211 0 0 0-.119.036l.001-.001a.163.163 0 0 0-.058.093v.001a.685.685 0 0 0-.014.14v.013-.001.746a.38.38 0 0 0 .045.21c.018.022.042.04.069.05h.001a.193.193 0 0 0 .069.013l.022-.001h-.001l.015.001a.19.19 0 0 0 .11-.035h-.001a.148.148 0 0 0 .052-.09v-.001c.008-.05.012-.1.011-.15v-.151h.35v.138a.559.559 0 0 1-.122.388l.001-.001c-.08.091-.218.137-.419.137s-.354-.049-.44-.15zm1.458.006c-.089-.096-.133-.235-.133-.42v-.647c0-.183.044-.321.133-.415s.236-.141.444-.14c.206 0 .353.047.441.14s.133.232.133.415v.647c0 .183-.045.323-.135.419s-.236.144-.44.144-.354-.049-.444-.144zm.606-.155a.359.359 0 0 0 .042-.191v-.792l.001-.021a.341.341 0 0 0-.043-.168l.001.002a.167.167 0 0 0-.07-.051h-.001a.188.188 0 0 0-.094-.011h.001l-.024-.001a.202.202 0 0 0-.07.013h.001a.179.179 0 0 0-.072.051.344.344 0 0 0-.042.188v.796a.36.36 0 0 0 .042.192.24.24 0 0 0 .256.046l-.002.001a.228.228 0 0 0 .074-.047v-.004zm.833-1.448h.377l.283 1.194.29-1.194h.367l.037 1.723h-.271l-.029-1.197-.28 1.197h-.218l-.29-1.202-.027 1.202h-.274l.034-1.723zm1.776 0h.587c.338 0 .507.163.507.489 0 .312-.178.468-.534.468h-.2v.766h-.362l.002-1.723zm.502.737c.036.004.072.001.107-.008s.066-.025.093-.046a.276.276 0 0 0 .052-.195v-.019a.545.545 0 0 0-.019-.141l.001.004a.129.129 0 0 0-.027-.047.149.149 0 0 0-.045-.034h-.001a.365.365 0 0 0-.143-.028l-.02.001h.001-.141v.515h.141zm1.115-.737h.389l.399 1.723h-.338l-.079-.397h-.347l-.081.397h-.343l.399-1.723zm.333 1.127-.136-.723-.135.723h.271zm.778-1.127h.254l.485.983V2.97h.301v1.723h-.241l-.489-1.026v1.026h-.311l.001-1.723zm1.745 1.066-.404-1.063h.34l.246.683.231-.683h.333l-.399 1.064v.657h-.348v-.657zm-8.586 1.411v.09h-.296v.7h-.124v-.7H9.96v-.09h.717zm.927.79h-.099a.04.04 0 0 1-.024-.008.046.046 0 0 1-.016-.018l-.086-.188h-.41l-.085.188a.05.05 0 0 1-.013.021.041.041 0 0 1-.025.008h-.097l.362-.79h.126l.367.787zm-.6-.293h.342l-.145-.322a.693.693 0 0 1-.026-.07l-.001-.004-.014.042-.013.033-.143.321zm1.224.215a.771.771 0 0 0 .068 0 .581.581 0 0 0 .11-.023l.048-.019v-.178h-.146a.028.028 0 0 1-.018-.006l-.005-.006a.019.019 0 0 1-.002-.007v-.062h.281v.303a.553.553 0 0 1-.149.063l-.004.001a.56.56 0 0 1-.091.016c-.035.003-.07.005-.106.005h-.005a.548.548 0 0 1-.182-.031l.004.001a.437.437 0 0 1-.146-.083h.001a.372.372 0 0 1-.092-.123l-.001-.002a.39.39 0 0 1-.033-.159v-.011c0-.058.012-.113.034-.163l-.001.003c.021-.047.053-.09.093-.125s.091-.063.145-.082a.686.686 0 0 1 .381-.002.433.433 0 0 1 .136.072l-.035.049a.032.032 0 0 1-.012.011.033.033 0 0 1-.017.004.046.046 0 0 1-.023-.006.44.44 0 0 1-.038-.02l.002.001a.322.322 0 0 0-.046-.021l-.002-.001a.35.35 0 0 0-.064-.017h-.003a.579.579 0 0 0-.087-.007H12.214a.427.427 0 0 0-.139.023l.003-.001a.303.303 0 0 0-.107.063.292.292 0 0 0-.067.096l-.001.002a.37.37 0 0 0 .001.266l-.001-.003a.293.293 0 0 0 .073.1c.03.027.066.048.106.063a.41.41 0 0 0 .144.016zm1.156-.012h.396v.09h-.516v-.79h.124l-.003.7zm.807.09h-.124v-.79h.124v.79zm.461-.786a.067.067 0 0 1 .019.014l.53.596-.001-.014.001-.015v.001-.589h.108v.794h-.066a.06.06 0 0 1-.023-.005.058.058 0 0 1-.019-.015l-.529-.595v.614h-.104v-.79h.064c.007 0 .014.001.02.004zm1.569-.004v.087h-.439v.261h.356v.084h-.356v.27h.439v.087h-.567v-.788h.567zM3.235.567l5.503 1.349v4.727L3.235 5.295V.567zM2.881.163v5.36l6.208 1.522v-5.36L2.881.162z"/><path fill="#afb1b8" style="fill:var(--color3, #afb1b8)" d="M6.209 9.534 0 8.01V2.65l6.209 1.523v5.36z"/><path fill="#afb1b8" style="fill:var(--color3, #afb1b8)" d="m2.985.506 5.431 1.332-2.31 1.995L.674 2.5 2.985.506zM2.881.164 0 2.651l6.209 1.523L9.09 1.686 2.882.163zm3.677 9.069L9.09 7.047l-2.532-.621v2.807z"/></symbol><symbol id="diagram" viewBox="0 0 64 32"><path fill="#2196f3" style="fill:var(--color2, #2196f3)" d="M6.965 6.983h.497v2.239h-.497V6.983zm1.99.996h.498v1.244h-.498V7.979zm-3.98.746h.497v.498h-.497v-.498zm-1.492-.249h.498v.746h-.498v-.746z"/><path fill="#212121" style="fill:var(--color1, #212121)" d="M.746 13.202h11.94a.746.746 0 0 0 .746-.746v-.995a.746.746 0 0 0-.746-.746h-.249V4.511l1.413-1.338a.75.75 0 1 0-.347-.351l-.002-.005-1.065 1.009v-.574a.746.746 0 0 0-.746-.746H1.74a.746.746 0 0 0-.746.746v7.463H.745a.746.746 0 0 0-.746.746v.995c0 .412.334.746.746.746zM14.179 2.257a.249.249 0 0 1 0 .498.249.249 0 0 1 0-.498zm-12.687.995c0-.137.111-.249.249-.249h9.95c.137 0 .249.111.249.249v1.045l-.498.473V3.75a.249.249 0 0 0-.249-.249H2.238a.249.249 0 0 0-.249.249v6.219a.25.25 0 0 0 .249.249h8.955a.248.248 0 0 0 .249-.249V5.454l.498-.471v5.732H1.492V3.253zm2.239 3.234h-.002a.746.746 0 1 0 .519 1.282l.865.434c.1.05.222.027.297-.057l1.838-2.068 1.807 1.354a.248.248 0 0 0 .32-.018l1.57-1.488V9.72H2.487V3.998h8.458V5.24l-1.76 1.667-1.822-1.366a.247.247 0 0 0-.335.033L5.165 7.671l-.697-.348a.686.686 0 0 0 .009-.09.746.746 0 0 0-.746-.746zm.249.746a.249.249 0 0 1-.498 0 .249.249 0 0 1 .498 0zm1.493 3.98H7.96v.249a.249.249 0 0 1-.249.249h-1.99a.249.249 0 0 1-.249-.249v-.249zm-4.975.249c0-.137.111-.249.249-.249h4.229v.249c0 .412.334.746.746.746h1.99a.746.746 0 0 0 .746-.746v-.249h4.229c.137 0 .249.111.249.249v.995a.249.249 0 0 1-.249.249H.747a.249.249 0 0 1-.249-.249v-.995z"/></symbol><symbol id="facebook" viewBox="0 0 64 32"><path fill="#afb1b8" style="fill:var(--color3, #afb1b8)" d="M2.844.708h.39V.03A4.88 4.88 0 0 0 2.686 0h-.021.001c-.562 0-.947.353-.947 1.003V1.6h-.62v.758h.62v1.908h.76V2.358h.595l.094-.758h-.689v-.523c0-.219.059-.369.365-.369z"/></symbol><symbol id="instagram" viewBox="0 0 64 32"><path d="M4.262 1.254a1.548 1.548 0 0 0-.099-.518 1.056 1.056 0 0 0-.247-.378 1.061 1.061 0 0 0-.37-.244L3.539.112a1.58 1.58 0 0 0-.518-.099C2.793.002 2.72 0 2.141 0s-.652.003-.879.013C1.035.023.879.059.745.112a1.06 1.06 0 0 0-.379.247C.26.463.177.589.123.729L.121.736a1.553 1.553 0 0 0-.099.518c-.011.228-.013.301-.013.88s.003.652.013.879c.01.227.047.382.099.518.057.148.141.274.246.378.107.108.236.192.378.246.136.053.291.089.518.099.228.01.3.013.879.013s.652-.003.879-.013c.227-.01.382-.046.518-.099.288-.113.511-.337.622-.617l.003-.007a1.58 1.58 0 0 0 .099-.518c.01-.228.012-.3.012-.879s-.001-.652-.011-.879zm-.384 1.742a1.174 1.174 0 0 1-.073.396.71.71 0 0 1-.401.403l-.005.002a1.174 1.174 0 0 1-.396.073c-.225.01-.292.013-.862.013s-.638-.003-.862-.013a1.174 1.174 0 0 1-.396-.073.662.662 0 0 1-.245-.159.67.67 0 0 1-.158-.24l-.002-.005a1.174 1.174 0 0 1-.073-.396c-.01-.225-.013-.293-.013-.862s.003-.638.013-.862C.414 1.065.449.952.478.877a.652.652 0 0 1 .16-.245.665.665 0 0 1 .241-.158L.884.472c.075-.029.188-.064.396-.073.225-.01.293-.012.862-.012s.638.003.862.012c.208.009.321.044.396.073a.653.653 0 0 1 .245.159.661.661 0 0 1 .159.245c.029.075.064.188.073.396.01.225.013.292.013.862s-.003.636-.013.861z"/><path d="M2.141 1.038c-.605 0-1.096.491-1.096 1.096a1.097 1.097 0 0 0 2.192.001v-.001c0-.605-.491-1.096-1.096-1.096zm0 1.807a.71.71 0 1 1 0-1.422.71.71 0 1 1 0 1.422zM3.537.994a.256.256 0 0 1-.512 0 .256.256 0 0 1 .512 0z"/></symbol><symbol id="linkedin" viewBox="0 0 64 32"><path fill="#afb1b8" style="fill:var(--color3, #afb1b8)" d="M4.266 4.267h.001V2.702c0-.765-.165-1.355-1.06-1.355-.43 0-.719.236-.837.46h-.012v-.388h-.849v2.848h.884v-1.41c0-.371.07-.731.53-.731.453 0 .46.424.46.754v1.387h.883zM.07 1.418h.885v2.849H.07V1.418zM.512 0A.512.512 0 0 0 0 .512c0 .283.23.517.512.517s.512-.234.512-.517A.512.512 0 0 0 .512 0z"/></symbol><symbol id="mail" viewBox="0 0 64 32"><path fill="#757575" style="fill:var(--color4, #757575)" d="M3.093 0H.32A.32.32 0 0 0 0 .32v1.92c0 .176.144.32.32.32h2.773a.32.32 0 0 0 .32-.32V.32a.32.32 0 0 0-.32-.32zm0 .213c.014 0 .028.003.041.008L1.706 1.458.278.221A.107.107 0 0 1 .319.213h2.773zm0 2.134H.32a.107.107 0 0 1-.107-.107V.447l1.423 1.234a.108.108 0 0 0 .14 0L3.199.447V2.24a.107.107 0 0 1-.107.107z"/></symbol><symbol id="smartphone" viewBox="0 0 64 32"><path fill="#757575" style="fill:var(--color4, #757575)" d="M1.813 0H.32A.32.32 0 0 0 0 .32v2.773c0 .176.144.32.32.32h1.493a.32.32 0 0 0 .32-.32V.32a.32.32 0 0 0-.32-.32zM.32.213h1.493c.059 0 .107.048.107.107v2.24H.213V.32C.213.261.261.213.32.213zM1.813 3.2H.32a.107.107 0 0 1-.107-.107v-.32H1.92v.32a.107.107 0 0 1-.107.107z"/><path fill="#757575" style="fill:var(--color4, #757575)" d="M.502 2.931c.019.017.031.042.031.07s-.012.053-.031.07c-.02.018-.046.029-.076.029S.37 3.089.35 3.071c-.019-.017-.031-.042-.031-.07s.012-.053.031-.07c.02-.018.046-.029.076-.029s.056.011.076.029z"/></symbol><symbol id="twitter" viewBox="0 0 64 32"><path fill="#afb1b8" style="fill:var(--color3, #afb1b8)" d="M4.267.81a1.777 1.777 0 0 1-.495.137l-.009.001a.874.874 0 0 0 .383-.477l.002-.006c-.16.096-.345.17-.543.21l-.011.002a.874.874 0 0 0-1.512.597.92.92 0 0 0 .02.199A2.474 2.474 0 0 1 .299.558a.876.876 0 0 0 .268 1.169.853.853 0 0 1-.399-.11l.004.002v.01a.88.88 0 0 0 .695.859l.006.001a.864.864 0 0 1-.222.029H.643a.766.766 0 0 1-.166-.015.883.883 0 0 0 .817.609 1.744 1.744 0 0 1-1.083.373h-.01a1.79 1.79 0 0 1-.209-.013L0 3.473a2.44 2.44 0 0 0 1.334.393h.008c1.61 0 2.49-1.333 2.49-2.489 0-.038-.001-.076-.003-.113.173-.125.319-.275.434-.447l.004-.006z"/></symbol></defs></svg>